<svg xmlns="http://www.w3.org/2000/svg" xmlns:xlink="http://www.w3.org/1999/xlink" width="164" height="77" viewBox="0 0 164 77">
  <defs>
    <clipPath id="clip-path">
      <rect width="164" height="77" fill="none"/>
    </clipPath>
  </defs>
  <g id="Cuadrícula_de_repetición_1" data-name="Cuadrícula de repetición 1" clip-path="url(#clip-path)">
    <g transform="translate(-837 -261)">
      <circle id="Elipse_7" data-name="Elipse 7" cx="6.5" cy="6.5" r="6.5" transform="translate(837 261)" fill="#e6e7e8" style="mix-blend-mode: multiply;isolation: isolate"/>
    </g>
    <g transform="translate(-808 -261)">
      <circle id="Elipse_7-2" data-name="Elipse 7" cx="6.5" cy="6.5" r="6.5" transform="translate(837 261)" fill="#e6e7e8" style="mix-blend-mode: multiply;isolation: isolate"/>
    </g>
    <g transform="translate(-779 -261)">
      <circle id="Elipse_7-3" data-name="Elipse 7" cx="6.5" cy="6.5" r="6.5" transform="translate(837 261)" fill="#e6e7e8" style="mix-blend-mode: multiply;isolation: isolate"/>
    </g>
    <g transform="translate(-750 -261)">
      <circle id="Elipse_7-4" data-name="Elipse 7" cx="6.5" cy="6.5" r="6.5" transform="translate(837 261)" fill="#e6e7e8" style="mix-blend-mode: multiply;isolation: isolate"/>
    </g>
    <g transform="translate(-721 -261)">
      <circle id="Elipse_7-5" data-name="Elipse 7" cx="6.5" cy="6.5" r="6.5" transform="translate(837 261)" fill="#e6e7e8" style="mix-blend-mode: multiply;isolation: isolate"/>
    </g>
    <g transform="translate(-692 -261)">
      <circle id="Elipse_7-6" data-name="Elipse 7" cx="6.5" cy="6.5" r="6.5" transform="translate(837 261)" fill="#e6e7e8" style="mix-blend-mode: multiply;isolation: isolate"/>
    </g>
    <g transform="translate(-837 -232)">
      <circle id="Elipse_7-7" data-name="Elipse 7" cx="6.5" cy="6.5" r="6.5" transform="translate(837 261)" fill="#e6e7e8" style="mix-blend-mode: multiply;isolation: isolate"/>
    </g>
    <g transform="translate(-808 -232)">
      <circle id="Elipse_7-8" data-name="Elipse 7" cx="6.5" cy="6.5" r="6.5" transform="translate(837 261)" fill="#e6e7e8" style="mix-blend-mode: multiply;isolation: isolate"/>
    </g>
    <g transform="translate(-779 -232)">
      <circle id="Elipse_7-9" data-name="Elipse 7" cx="6.5" cy="6.5" r="6.5" transform="translate(837 261)" fill="#e6e7e8" style="mix-blend-mode: multiply;isolation: isolate"/>
    </g>
    <g transform="translate(-750 -232)">
      <circle id="Elipse_7-10" data-name="Elipse 7" cx="6.5" cy="6.5" r="6.5" transform="translate(837 261)" fill="#e6e7e8" style="mix-blend-mode: multiply;isolation: isolate"/>
    </g>
    <g transform="translate(-721 -232)">
      <circle id="Elipse_7-11" data-name="Elipse 7" cx="6.5" cy="6.5" r="6.5" transform="translate(837 261)" fill="#e6e7e8" style="mix-blend-mode: multiply;isolation: isolate"/>
    </g>
    <g transform="translate(-692 -232)">
      <circle id="Elipse_7-12" data-name="Elipse 7" cx="6.5" cy="6.5" r="6.5" transform="translate(837 261)" fill="#e6e7e8" style="mix-blend-mode: multiply;isolation: isolate"/>
    </g>
    <g transform="translate(-837 -203)">
      <circle id="Elipse_7-13" data-name="Elipse 7" cx="6.5" cy="6.5" r="6.5" transform="translate(837 261)" fill="#e6e7e8" style="mix-blend-mode: multiply;isolation: isolate"/>
    </g>
    <g transform="translate(-808 -203)">
      <circle id="Elipse_7-14" data-name="Elipse 7" cx="6.5" cy="6.5" r="6.5" transform="translate(837 261)" fill="#e6e7e8" style="mix-blend-mode: multiply;isolation: isolate"/>
    </g>
    <g transform="translate(-779 -203)">
      <circle id="Elipse_7-15" data-name="Elipse 7" cx="6.5" cy="6.5" r="6.5" transform="translate(837 261)" fill="#e6e7e8" style="mix-blend-mode: multiply;isolation: isolate"/>
    </g>
    <g transform="translate(-750 -203)">
      <circle id="Elipse_7-16" data-name="Elipse 7" cx="6.5" cy="6.5" r="6.5" transform="translate(837 261)" fill="#e6e7e8" style="mix-blend-mode: multiply;isolation: isolate"/>
    </g>
    <g transform="translate(-721 -203)">
      <circle id="Elipse_7-17" data-name="Elipse 7" cx="6.5" cy="6.5" r="6.5" transform="translate(837 261)" fill="#e6e7e8" style="mix-blend-mode: multiply;isolation: isolate"/>
    </g>
    <g transform="translate(-692 -203)">
      <circle id="Elipse_7-18" data-name="Elipse 7" cx="6.5" cy="6.5" r="6.5" transform="translate(837 261)" fill="#e6e7e8" style="mix-blend-mode: multiply;isolation: isolate"/>
    </g>
  </g>
</svg>
