<svg xmlns="http://www.w3.org/2000/svg" width="114.863" height="100.822" viewBox="0 0 114.863 100.822">
  <g id="icono_bloqueo" data-name="icono bloqueo" transform="translate(-731.96 -687.88)">
    <path id="Trazado_611" data-name="Trazado 611" d="M79.915,85.228S142.5,38.287,100.164,25.86,14.1-17.4,2.6,12.974,22.389,56.234,7.662,72.8s18.409,46.481,72.253,12.426" transform="translate(731.959 687.88)" fill="#f2f2f2"/>
    <path id="Trazado_630" data-name="Trazado 630" d="M59.785,8.262,35.033,19.043c0,33.216,4.175,37.426,24.752,51.1,20.578-13.672,24.752-17.883,24.752-51.1Zm0,12.376a4.641,4.641,0,0,1,4.641,4.641l-.773,15.47a3.868,3.868,0,1,1-7.735,0l-.774-15.47A4.641,4.641,0,0,1,59.785,20.638Zm0,26.3a4.641,4.641,0,1,1-4.641,4.641,4.641,4.641,0,0,1,4.641-4.641" transform="translate(731.959 687.88)" fill="#f5a50b"/>
    <path id="Trazado_648" data-name="Trazado 648" d="M56.536,6.971,31.784,17.752c0,33.216,4.174,37.426,24.752,51.1,20.578-13.672,24.752-17.883,24.752-51.1Zm0,12.376a4.641,4.641,0,0,1,4.641,4.641L60.4,39.458a3.868,3.868,0,1,1-7.735,0L51.9,23.988A4.641,4.641,0,0,1,56.536,19.347Zm0,26.3A4.641,4.641,0,1,1,51.9,50.287a4.641,4.641,0,0,1,4.641-4.641" transform="translate(731.959 687.88)" fill="#425453"/>
  </g>
</svg>
