<svg xmlns="http://www.w3.org/2000/svg" width="114.863" height="100.823" viewBox="0 0 114.863 100.823">
  <g id="icono_falido" data-name="icono falido" transform="translate(-729.887 -737.673)">
    <path id="Trazado_744" data-name="Trazado 744" d="M123.97,134.9s62.589-46.941,20.249-59.368S58.16,32.27,46.655,62.644s19.789,43.26,5.062,59.827S70.126,168.952,123.97,134.9" transform="translate(685.831 688.003)" fill="#f2f2f2"/>
    <path id="Trazado_807" data-name="Trazado 807" d="M920.615,1257.8h22.726a3.637,3.637,0,0,0,3.637-3.637v-22.726a3.637,3.637,0,0,0-3.637-3.637H920.615a3.636,3.636,0,0,0-3.637,3.637v22.726a3.637,3.637,0,0,0,3.637,3.637" transform="translate(-167.229 -429.499)" fill="#f5a50b"/>
    <path id="Trazado_924" data-name="Trazado 924" d="M980.28,1256H927.666a5.7,5.7,0,0,1-5.688-5.688V1197.7a5.694,5.694,0,0,1,5.688-5.689H980.28a5.694,5.694,0,0,1,5.687,5.689v52.612A5.694,5.694,0,0,1,980.28,1256m-52.614-60.908a2.61,2.61,0,0,0-2.607,2.608v52.612a2.609,2.609,0,0,0,2.607,2.607H980.28a2.609,2.609,0,0,0,2.606-2.607V1197.7a2.609,2.609,0,0,0-2.606-2.608Z" transform="translate(-167.229 -429.499)" fill="#425453"/>
    <path id="Trazado_925" data-name="Trazado 925" d="M964,1200.785a1.541,1.541,0,0,1-1.541-1.541v-9.655a1.541,1.541,0,0,1,3.082,0v9.655a1.541,1.541,0,0,1-1.541,1.541" transform="translate(-167.229 -429.499)" fill="#425453"/>
    <path id="Trazado_926" data-name="Trazado 926" d="M968.086,1203.137a1.541,1.541,0,0,1-1.541-1.541v-9.655a1.541,1.541,0,0,1,3.082,0v9.655a1.541,1.541,0,0,1-1.541,1.541" transform="translate(-167.229 -429.499)" fill="#425453"/>
    <path id="Trazado_927" data-name="Trazado 927" d="M972.666,1199.918a1.541,1.541,0,0,1-1.541-1.541v-14.731a1.541,1.541,0,1,1,3.082,0v14.731a1.541,1.541,0,0,1-1.541,1.541" transform="translate(-167.229 -429.499)" fill="#425453"/>
    <path id="Trazado_928" data-name="Trazado 928" d="M977.123,1206.356a1.541,1.541,0,0,1-1.541-1.541v-14.731a1.541,1.541,0,0,1,3.082,0v14.731a1.541,1.541,0,0,1-1.541,1.541" transform="translate(-167.229 -429.499)" fill="#425453"/>
    <path id="Trazado_929" data-name="Trazado 929" d="M943.729,1226.906a1.535,1.535,0,0,1-1.089-.451l-6.933-6.933a1.54,1.54,0,0,1,2.179-2.178l6.932,6.932a1.541,1.541,0,0,1-1.089,2.63" transform="translate(-167.229 -429.499)" fill="#425453"/>
    <path id="Trazado_930" data-name="Trazado 930" d="M936.8,1226.906a1.541,1.541,0,0,1-1.089-2.63l6.932-6.932a1.54,1.54,0,0,1,2.179,2.178l-6.933,6.933a1.535,1.535,0,0,1-1.089.451" transform="translate(-167.229 -429.499)" fill="#425453"/>
    <path id="Trazado_931" data-name="Trazado 931" d="M972.326,1226.906a1.535,1.535,0,0,1-1.089-.451l-6.933-6.933a1.54,1.54,0,0,1,2.179-2.178l6.932,6.932a1.541,1.541,0,0,1-1.089,2.63" transform="translate(-167.229 -429.499)" fill="#425453"/>
    <path id="Trazado_932" data-name="Trazado 932" d="M965.393,1226.906a1.541,1.541,0,0,1-1.089-2.63l6.932-6.932a1.54,1.54,0,0,1,2.179,2.178l-6.933,6.933a1.535,1.535,0,0,1-1.089.451" transform="translate(-167.229 -429.499)" fill="#425453"/>
  </g>
</svg>
