<svg xmlns="http://www.w3.org/2000/svg" width="16.75" height="15" viewBox="0 0 16.75 15">
  <path id="Icon_awesome-lock-open" data-name="Icon awesome-lock-open" d="M11.58,0A4.183,4.183,0,0,0,7.438,4.2V6.125H1.313A1.313,1.313,0,0,0,0,7.437v5.25A1.313,1.313,0,0,0,1.313,14h9.625a1.313,1.313,0,0,0,1.313-1.312V7.437a1.313,1.313,0,0,0-1.312-1.312H9.625V4.181a1.969,1.969,0,1,1,3.938-.025V6.344A.655.655,0,0,0,14.219,7h.875a.655.655,0,0,0,.656-.656V4.156A4.161,4.161,0,0,0,11.58,0Z" transform="translate(0.5 0.5)" fill="none" stroke="#fff" stroke-width="1"/>
</svg>
