<svg id="Grupo_1530" data-name="Grupo 1530" xmlns="http://www.w3.org/2000/svg" xmlns:xlink="http://www.w3.org/1999/xlink" width="22.079" height="15.909" viewBox="0 0 22.079 15.909">
  <defs>
    <clipPath id="clip-path">
      <rect id="Rectángulo_1294" data-name="Rectángulo 1294" width="22.079" height="15.909" fill="#fff"/>
    </clipPath>
  </defs>
  <g id="Grupo_1529" data-name="Grupo 1529" clip-path="url(#clip-path)">
    <path id="Trazado_538" data-name="Trazado 538" d="M37.2,7.942,36,7.559h0a.469.469,0,0,1-.3-.583l.362-1.22a.381.381,0,1,1,.726.231l-.129.434a3.133,3.133,0,0,0,1.1-2.343,3.049,3.049,0,0,0-3-3.161.394.394,0,0,1,0-.788h0a3.823,3.823,0,0,1,3.752,3.963,3.926,3.926,0,0,1-1.439,2.988l.342.109C37.9,7.34,37.69,8.1,37.2,7.942Z" transform="translate(-23.339 -0.088)" fill="#fff"/>
    <path id="Trazado_539" data-name="Trazado 539" d="M25.193,7.928h0a3.823,3.823,0,0,1-3.752-3.963A3.922,3.922,0,0,1,22.97.9L22.537.766h0a.393.393,0,0,1,.223-.753l1.2.383a.469.469,0,0,1,.3.583L23.9,2.2a.381.381,0,1,1-.726-.232l.088-.3A3.139,3.139,0,0,0,22.2,3.98a3.048,3.048,0,0,0,3,3.161.394.394,0,0,1,0,.788Z" transform="translate(-14.548 0)" fill="#fff"/>
    <path id="Trazado_540" data-name="Trazado 540" d="M18.81,29.138H3.268a3.272,3.272,0,0,0,0,6.544H18.81a3.272,3.272,0,0,0,0-6.544M4.52,33.41l-.383-.249v.457a.395.395,0,0,1-.789,0v-.457l-.383.249h0a.394.394,0,0,1-.429-.662l.483-.314-.483-.313a.394.394,0,0,1,.429-.662l.383.249v-.457a.395.395,0,0,1,.789,0v.457l.383-.249h0a.395.395,0,0,1,.43.662l-.483.313.483.314a.395.395,0,0,1-.43.662ZM8.5,32.748a.394.394,0,0,1-.429.662l-.383-.249v.457a.394.394,0,1,1-.789,0v-.457l-.383.249h0a.394.394,0,0,1-.429-.662l.483-.314-.483-.313a.394.394,0,0,1,.429-.662l.383.249v-.457a.394.394,0,1,1,.789,0v.457l.383-.249h0a.394.394,0,0,1,.429.662l-.483.313Zm3.12.662-.383-.249v.457a.394.394,0,1,1-.789,0v-.457l-.383.249h0a.395.395,0,0,1-.43-.662l.483-.314-.483-.313a.395.395,0,0,1,.43-.662l.383.249v-.457a.394.394,0,1,1,.789,0v.457l.383-.249h0a.394.394,0,0,1,.429.662l-.483.313.483.314a.394.394,0,0,1-.429.662Zm3.549,0-.383-.249v.457a.395.395,0,0,1-.789,0v-.457l-.383.249h0a.394.394,0,0,1-.429-.662l.483-.314-.483-.313a.394.394,0,0,1,.429-.662l.383.249v-.457a.394.394,0,1,1,.789,0v.457l.383-.249h0a.395.395,0,0,1,.43.662l-.483.313.483.314a.395.395,0,0,1-.43.662Zm4.152.6H16.955a.394.394,0,0,1,0-.789h2.366a.394.394,0,1,1,0,.789" transform="translate(0 -19.773)" fill="#fff"/>
  </g>
</svg>
