<svg xmlns="http://www.w3.org/2000/svg" width="14" height="14.023" viewBox="0 0 14 14.023">
  <g id="noun-bank-4703432" transform="translate(-110.832)">
    <path id="Trazado_419" data-name="Trazado 419" d="M297.5,158.354a.854.854,0,0,1,.854-.854h3.415a.854.854,0,0,1,0,1.708h-3.415A.854.854,0,0,1,297.5,158.354Z" transform="translate(-182.229 -154.567)" fill="#425453"/>
    <path id="Trazado_420" data-name="Trazado 420" d="M116.763,51.982a2.3,2.3,0,0,1,2.138,0c.342.155.736.384,1.219.663l3.916,2.267a1.6,1.6,0,0,1-.8,2.976h-.112v4.105a1.878,1.878,0,0,1-.171,3.748H112.71a1.878,1.878,0,0,1-.171-3.748V57.888h-.112a1.6,1.6,0,0,1-.8-2.976l3.916-2.267c.482-.279.876-.507,1.219-.663Zm.424.933c-.291.132-.642.334-1.151.63L112.141,55.8a.571.571,0,0,0,.286,1.065h10.81a.571.571,0,0,0,.286-1.065l-3.894-2.255c-.509-.3-.86-.5-1.151-.63a1.3,1.3,0,0,0-1.291,0Zm4.914,9.071v-4.1h-2.049v4.1Zm-5.463,0v-4.1h2.39v4.1Zm-1.024,0v-4.1h-2.049v4.1Zm-3.756,1.878a.854.854,0,0,1,.854-.854h10.244a.854.854,0,1,1,0,1.707H112.71A.854.854,0,0,1,111.857,63.864Z" transform="translate(0 -51.719)" fill="#425453" fill-rule="evenodd"/>
  </g>
</svg>
