<svg xmlns="http://www.w3.org/2000/svg" width="20" height="20" viewBox="0 0 20 20">
  <path id="Trazado_421" data-name="Trazado 421" d="M138.045,59.09a.479.479,0,0,1-.694,0,.528.528,0,0,1,0-.695L140,56.063h-7.266a.447.447,0,0,1,0-.893H140l-2.678-2.333a.528.528,0,0,1,0-.695.508.508,0,0,1,.719,0l3.2,3.127a.528.528,0,0,1,0,.695Zm-9.3.62h-5.629a1.758,1.758,0,0,1-1.736-1.737V53.259a1.758,1.758,0,0,1,1.736-1.737h5.629a1.758,1.758,0,0,1,1.736,1.737v4.715A1.758,1.758,0,0,1,128.746,59.711Zm-2.827-6.377a2.283,2.283,0,1,0,2.281,2.283A2.276,2.276,0,0,0,125.919,53.333Zm-1.215,10.6a.508.508,0,0,1,.719,0,.479.479,0,0,1,0,.695l-2.678,2.333h7.266a.447.447,0,0,1,0,.893H122.72l2.654,2.333a.479.479,0,0,1,0,.695.387.387,0,0,1-.323.2.489.489,0,0,1-.347-.149l-3.2-3.176a.527.527,0,0,1,0-.695Zm12.573-.6a4.094,4.094,0,1,1-4.092,4.094A4.1,4.1,0,0,1,137.277,63.333Z" transform="translate(-121.375 -51.522)" fill="#fff" fill-rule="evenodd"/>
</svg>
