<svg xmlns="http://www.w3.org/2000/svg" width="11.25" height="15" viewBox="0 0 11.25 15">
  <path id="Icon_awesome-file-invoice-dollar" data-name="Icon awesome-file-invoice-dollar" d="M11.045,3.076,8.177.205A.7.7,0,0,0,7.679,0H7.5V3.75h3.75V3.571A.7.7,0,0,0,11.045,3.076Zm-4.482.908V0H.7A.7.7,0,0,0,0,.7V14.3a.7.7,0,0,0,.7.7h9.844a.7.7,0,0,0,.7-.7V4.688H7.266A.705.705,0,0,1,6.563,3.984ZM1.875,2.109a.234.234,0,0,1,.234-.234H4.453a.234.234,0,0,1,.234.234v.469a.234.234,0,0,1-.234.234H2.109a.234.234,0,0,1-.234-.234Zm0,2.344V3.984a.234.234,0,0,1,.234-.234H4.453a.234.234,0,0,1,.234.234v.469a.234.234,0,0,1-.234.234H2.109A.234.234,0,0,1,1.875,4.453Zm4.219,7.731v.707a.234.234,0,0,1-.234.234H5.391a.234.234,0,0,1-.234-.234v-.712a1.678,1.678,0,0,1-.919-.333.235.235,0,0,1-.017-.356l.344-.328a.24.24,0,0,1,.3-.021.705.705,0,0,0,.376.109h.824a.368.368,0,0,0,.346-.386.382.382,0,0,0-.257-.373l-1.318-.4a1.326,1.326,0,0,1-.925-1.271A1.3,1.3,0,0,1,5.156,7.5V6.8a.234.234,0,0,1,.234-.234h.469a.234.234,0,0,1,.234.234v.712a1.675,1.675,0,0,1,.919.333.235.235,0,0,1,.017.356l-.344.328a.24.24,0,0,1-.3.021.7.7,0,0,0-.376-.109H5.189a.368.368,0,0,0-.346.386A.382.382,0,0,0,5.1,9.2l1.318.4a1.326,1.326,0,0,1,.925,1.271A1.3,1.3,0,0,1,6.094,12.184Z" fill="#425453"/>
</svg>
