<svg xmlns="http://www.w3.org/2000/svg" width="13.2" height="18" viewBox="0 0 13.2 18">
  <path id="Icon_awesome-file-invoice-dollar" data-name="Icon awesome-file-invoice-dollar" d="M12.959,3.691,9.594.246A.815.815,0,0,0,9.01,0H8.8V4.5h4.4V4.286A.851.851,0,0,0,12.959,3.691ZM7.7,4.781V0H.825A.833.833,0,0,0,0,.844V17.156A.833.833,0,0,0,.825,18h11.55a.833.833,0,0,0,.825-.844V5.625H8.525A.837.837,0,0,1,7.7,4.781ZM2.2,2.531a.278.278,0,0,1,.275-.281h2.75a.278.278,0,0,1,.275.281v.563a.278.278,0,0,1-.275.281H2.475A.278.278,0,0,1,2.2,3.094Zm0,2.813V4.781A.278.278,0,0,1,2.475,4.5h2.75a.278.278,0,0,1,.275.281v.563a.278.278,0,0,1-.275.281H2.475A.278.278,0,0,1,2.2,5.344Zm4.95,9.277v.848a.278.278,0,0,1-.275.281h-.55a.278.278,0,0,1-.275-.281v-.854a1.941,1.941,0,0,1-1.078-.4.286.286,0,0,1-.02-.427l.4-.394a.277.277,0,0,1,.348-.026.814.814,0,0,0,.441.131h.966a.438.438,0,0,0,.406-.464.459.459,0,0,0-.3-.448l-1.547-.475a1.588,1.588,0,0,1-1.086-1.525A1.551,1.551,0,0,1,6.05,9V8.156a.278.278,0,0,1,.275-.281h.55a.278.278,0,0,1,.275.281V9.01a1.939,1.939,0,0,1,1.078.4.286.286,0,0,1,.02.427l-.4.394a.277.277,0,0,1-.348.026.811.811,0,0,0-.441-.131H6.088a.438.438,0,0,0-.406.464.459.459,0,0,0,.3.448l1.547.475a1.588,1.588,0,0,1,1.086,1.525A1.55,1.55,0,0,1,7.15,14.621Z" fill="#fff"/>
</svg>
