<svg id="icono_reportado" data-name="icono reportado" xmlns="http://www.w3.org/2000/svg" xmlns:xlink="http://www.w3.org/1999/xlink" width="60" height="52.666" viewBox="0 0 60 52.666">
  <defs>
    <clipPath id="clip-path">
      <rect id="Rectángulo_1335" data-name="Rectángulo 1335" width="60" height="52.666" fill="none"/>
    </clipPath>
  </defs>
  <g id="Grupo_1597" data-name="Grupo 1597">
    <g id="Grupo_1596" data-name="Grupo 1596" clip-path="url(#clip-path)">
      <path id="Trazado_562" data-name="Trazado 562" d="M41.745,44.52S74.439,20,52.322,13.508,7.368-9.089,1.358,6.777,11.7,29.375,4,38.029s9.616,24.28,37.742,6.491" transform="translate(0 0)" fill="#f2f2f2"/>
    </g>
  </g>
  <g id="Grupo_1599" data-name="Grupo 1599">
    <g id="Grupo_1598" data-name="Grupo 1598" clip-path="url(#clip-path)">
      <path id="Trazado_563" data-name="Trazado 563" d="M72.219,58.028A10.452,10.452,0,1,1,61.766,47.576,10.453,10.453,0,0,1,72.219,58.028" transform="translate(-24.51 -22.724)" fill="#f5a50b"/>
    </g>
  </g>
  <g id="Grupo_1601" data-name="Grupo 1601">
    <g id="Grupo_1600" data-name="Grupo 1600" clip-path="url(#clip-path)">
      <path id="Trazado_564" data-name="Trazado 564" d="M48.972,26.667A54.509,54.509,0,0,0,51.008,15a1.355,1.355,0,0,0-1.254-1.411c-2.949-.216-3.532-5.716-3.536-5.769a1.353,1.353,0,0,0-.664-1.05A24.76,24.76,0,0,0,33.86,3.241,24.932,24.932,0,0,0,22.148,6.774a1.361,1.361,0,0,0-.664,1.048c-.005.056-.588,5.555-3.537,5.772A1.354,1.354,0,0,0,16.693,15C16.739,16.056,18,40.789,33.626,43.412a1.389,1.389,0,0,0,.449,0,14.733,14.733,0,0,0,2.837-.786,11.879,11.879,0,1,0,12.06-15.959Zm-12.7,13.306a11.91,11.91,0,0,1-2.419.727C22.306,38.537,19.917,20.728,19.485,16.02c3.306-1.161,4.323-5.486,4.6-7.232A22.4,22.4,0,0,1,33.86,5.951h0a22.253,22.253,0,0,1,9.752,2.837c.28,1.746,1.3,6.073,4.6,7.234A53.079,53.079,0,0,1,46.1,26.791a11.843,11.843,0,0,0-9.832,13.181Zm11.786,7.705a9.17,9.17,0,1,1,9.17-9.17,9.18,9.18,0,0,1-9.17,9.17m.1-15.483A1.354,1.354,0,0,0,46.8,33.549v5.6a1.354,1.354,0,1,0,2.709,0v-5.6a1.354,1.354,0,0,0-1.354-1.354m0,9.663A1.354,1.354,0,0,0,46.8,43.211v.09a1.354,1.354,0,1,0,2.709,0v-.09a1.354,1.354,0,0,0-1.354-1.354" transform="translate(-7.973 -1.548)" fill="#425453"/>
    </g>
  </g>
</svg>
