<svg xmlns="http://www.w3.org/2000/svg" width="13.2" height="18" viewBox="0 0 13.2 18">
  <g id="Grupo_1349" data-name="Grupo 1349" transform="translate(-954.4 -274)">
    <path id="Unión_4" data-name="Unión 4" d="M-25.175-1759a.833.833,0,0,1-.825-.844v-16.312a.833.833,0,0,1,.825-.843H-18.3v4.781a.837.837,0,0,0,.824.844H-12.8v11.531a.833.833,0,0,1-.825.844Zm1.375-13.219v.563a.278.278,0,0,0,.274.282h2.75a.278.278,0,0,0,.274-.282v-.562a.278.278,0,0,0-.274-.281h-2.75A.277.277,0,0,0-23.8-1772.219Zm0-2.25v.563a.278.278,0,0,0,.274.282h2.75a.278.278,0,0,0,.274-.282v-.562a.278.278,0,0,0-.274-.281h-2.75A.277.277,0,0,0-23.8-1774.469Zm6.6,1.969v-4.5h.21a.814.814,0,0,1,.584.246l3.365,3.445a.851.851,0,0,1,.241.594v.215Z" transform="translate(980.4 2051)" fill="#fff"/>
    <path id="Icon_material-done" data-name="Icon material-done" d="M7.28,12.526,5.645,10.891l-.545.545,2.18,2.18,4.671-4.671L11.406,8.4Z" transform="translate(952.475 274.601)" fill="#53595a"/>
  </g>
</svg>
