<svg xmlns="http://www.w3.org/2000/svg" width="19" height="13.508" viewBox="0 0 19 13.508">
  <g id="Grupo_1348" data-name="Grupo 1348" transform="translate(-854 -276)">
    <g id="Grupo_1347" data-name="Grupo 1347" transform="translate(1030.611 -482.508)">
      <path id="Trazado_497" data-name="Trazado 497" d="M100.53,122.64h-10.2a2.4,2.4,0,0,0-2.406,2.406v4.2a2.4,2.4,0,0,0,2.406,2.406h10.187a2.4,2.4,0,0,0,2.406-2.406v-4.2a2.39,2.39,0,0,0-2.39-2.406Zm1.444,6.61a1.438,1.438,0,0,1-1.444,1.444h-10.2a1.438,1.438,0,0,1-1.444-1.444v-4.2a1.438,1.438,0,0,1,1.444-1.444h10.187a1.438,1.438,0,0,1,1.444,1.444v4.2Z" transform="translate(-262.531 640.36)" fill="#fff"/>
      <path id="Trazado_498" data-name="Trazado 498" d="M154.484,195.122a.8.8,0,1,1-.8-.8.8.8,0,0,1,.8.8" transform="translate(-325.631 570.733)" fill="#fff"/>
      <path id="Trazado_499" data-name="Trazado 499" d="M492.724,310.482a.8.8,0,1,1-.8-.8.8.8,0,0,1,.8.8" transform="translate(-654.181 458.678)" fill="#fff"/>
      <path id="Trazado_500" data-name="Trazado 500" d="M358.96,293.44v.722a.37.37,0,0,0,.289-.369C359.233,293.632,359.168,293.536,358.96,293.44Z" transform="translate(-525.807 474.453)" fill="#fff"/>
      <path id="Trazado_501" data-name="Trazado 501" d="M334.88,248.975c0,.128.064.209.257.289v-.626A.378.378,0,0,0,334.88,248.975Z" transform="translate(-502.417 517.972)" fill="#fff"/>
      <path id="Trazado_502" data-name="Trazado 502" d="M252.409,182.412a2.813,2.813,0,1,0,3.979,0A2.8,2.8,0,0,0,252.409,182.412Zm2.246,3.561v.369h-.417v-.369a1.153,1.153,0,0,1-.77-.449l-.064-.08.289-.369.1.128a.916.916,0,0,0,.449.3v-.866c-.337-.112-.722-.273-.722-.8a.8.8,0,0,1,.722-.8v-.369h.417v.369a1.131,1.131,0,0,1,.674.4l.064.08-.3.369-.112-.128a.818.818,0,0,0-.337-.241v.754a.887.887,0,0,1,.754.866.816.816,0,0,1-.738.834Z" transform="translate(-421.502 583.106)" fill="#fff"/>
    </g>
    <path id="Sustracción_5" data-name="Sustracción 5" d="M-8.5-1774h-16a1.5,1.5,0,0,1-1.5-1.5,1.5,1.5,0,0,1,1.5-1.5h16a1.5,1.5,0,0,1,1.5,1.5A1.5,1.5,0,0,1-8.5-1774Zm-15-2a.5.5,0,0,0-.5.5.5.5,0,0,0,.5.5h14a.5.5,0,0,0,.5-.5.5.5,0,0,0-.5-.5Z" transform="translate(880 2053)" fill="#fff"/>
  </g>
</svg>
