<svg xmlns="http://www.w3.org/2000/svg" width="15" height="14.99" viewBox="0 0 15 14.99">
  <path id="Trazado_421" data-name="Trazado 421" d="M133.878,57.195a.36.36,0,0,1-.521,0,.4.4,0,0,1,0-.521l1.99-1.748H129.9a.335.335,0,0,1,0-.669h5.449l-2.009-1.748a.4.4,0,0,1,0-.521.381.381,0,0,1,.539,0l2.4,2.343a.4.4,0,0,1,0,.521Zm-6.975.465h-4.222a1.318,1.318,0,0,1-1.3-1.3V52.824a1.318,1.318,0,0,1,1.3-1.3H126.9a1.318,1.318,0,0,1,1.3,1.3v3.534A1.318,1.318,0,0,1,126.9,57.66Zm-2.12-4.78a1.711,1.711,0,1,0,1.711,1.711A1.707,1.707,0,0,0,124.783,52.88Zm-.911,7.942a.381.381,0,0,1,.539,0,.359.359,0,0,1,0,.521L122.4,63.09h5.449a.335.335,0,1,1,0,.669h-5.468l1.99,1.748a.359.359,0,0,1,0,.521.291.291,0,0,1-.242.149.367.367,0,0,1-.26-.112l-2.4-2.381a.4.4,0,0,1,0-.521Zm9.43-.446a3.069,3.069,0,1,1-3.069,3.069A3.072,3.072,0,0,1,133.3,60.375Z" transform="translate(-121.375 -51.522)" fill="#425453" fill-rule="evenodd"/>
</svg>
