<svg xmlns="http://www.w3.org/2000/svg" width="14" height="10.231" viewBox="0 0 14 10.231">
  <g id="Icon_ionic-ios-mail-unread" data-name="Icon ionic-ios-mail-unread" transform="translate(-3.375 -7.313)">
    <path id="Trazado_358" data-name="Trazado 358" d="M29.106,8.928A1.615,1.615,0,1,1,27.49,7.313,1.615,1.615,0,0,1,29.106,8.928Z" transform="translate(-11.731)" fill="#425453"/>
    <g id="Grupo_1097" data-name="Grupo 1097" transform="translate(3.375 7.851)">
      <path id="Trazado_359" data-name="Trazado 359" d="M15.76,13.024a2.243,2.243,0,0,1-.525-.064l-1.6,1.625a.065.065,0,0,0,0,.094l2.534,2.7a.437.437,0,0,1,0,.619.439.439,0,0,1-.619,0L13.03,15.309a.069.069,0,0,0-.1,0l-.616.626a2.71,2.71,0,0,1-1.932.814,2.764,2.764,0,0,1-1.972-.838l-.592-.6a.069.069,0,0,0-.1,0L5.2,18a.439.439,0,0,1-.619,0,.437.437,0,0,1,0-.619l2.534-2.7a.072.072,0,0,0,0-.094L3.489,10.9a.066.066,0,0,0-.114.047v7.38A1.08,1.08,0,0,0,4.452,19.4H16.3a1.08,1.08,0,0,0,1.077-1.077v-5.99A2.233,2.233,0,0,1,15.76,13.024Z" transform="translate(-3.375 -9.709)" fill="#425453"/>
      <path id="Trazado_360" data-name="Trazado 360" d="M13.965,9.514a2.237,2.237,0,0,1,.276-1.077H4.892a1.051,1.051,0,0,0-.666.236l5.28,5.375a1.845,1.845,0,0,0,2.632,0l2.709-2.756A2.227,2.227,0,0,1,13.965,9.514Z" transform="translate(-3.819 -8.438)" fill="#425453"/>
    </g>
  </g>
</svg>
