<svg xmlns="http://www.w3.org/2000/svg" width="14" height="19" viewBox="0 0 14 19">
  <g id="Grupo_1099" data-name="Grupo 1099" transform="translate(-2899.992 -2016.045)">
    <path id="Trazado_361" data-name="Trazado 361" d="M160.634,40.707c.033-.087.137-.2.156-.279.03-.129-.055-.241-.037-.354.033-.214.282-.348.289-.588.137-.065.117-.013.22-.145.054.062.168.071.206.1.1-.144.222-.07.372-.179s.171-.264.283-.389c.278-.31.628-.557.884-.891a.565.565,0,0,0-.357-.154c.016-.094-.032-.218-.011-.311-.041.051-.161.093-.208.136-.229-.343-.118-.223.006-.55a1.4,1.4,0,0,0,.09-.5c-.011-.246-.482-.94.149-.846a.48.48,0,0,0-.037-.307,1.386,1.386,0,0,0-.354-.081c-.061-.346.4-.281.133-.618-.019-.024-.177-.008-.249-.078a.732.732,0,0,1-.154-.34.814.814,0,0,1,.073-.791c.06-.071.185-.062.274-.163A3.074,3.074,0,0,0,162.53,33c-.219-.145-.224-.733.152-.633.17.045.058.162.153.274.024.028.161.033.174.077,0,.01.014.2.01.187.041.11-.2.162.1.236.224.056.275-.038.256-.254-.023-.26-.377-.4-.177-.687.469.029.461-.37.833-.568.334-.178.812-.175.691-.7-.15-.022-.225-.01-.289.125a.907.907,0,0,1,.256-.55c.1-.142.188-.428.284-.535.346-.386.71-.3,1.143-.268a.7.7,0,0,0-.178.3.369.369,0,0,0,.208.073,1.439,1.439,0,0,0,.195-.69c.216-.013.317-.137.509-.175s.422.018.627-.006a3.562,3.562,0,0,0,1.083-.5c-.028-.081,0-.162-.063-.238a2.409,2.409,0,0,1,.763-.344.635.635,0,0,1,.811.274c-.26.17-.654.179-.884.349s-.308.438-.573.675c-.39.349-1.01.88-1.007,1.428,0,.134.079.269.038.421-.033.123-.261.326-.249.42.035.265.224.017.331.1.124.1.145.25.209.4.118.268.383.548.477.835.083.253-.1.551.086.761a1.956,1.956,0,0,0,1.085.421c.155-.288.311,0,.473.009s.291-.119.484-.1a2.957,2.957,0,0,1,1.089.683c.118.1.37.421.52.435.108.011.175-.147.291-.146.152,0,.2.121.332.142.223.035.362-.083.583-.109.182-.021.386.069.58,0,.035.263.433.287.408.592-.019.239-.45.52-.689.5-.114.227.051.252.068.385a3.949,3.949,0,0,1-.009.52,3.373,3.373,0,0,0,.107,1.023c.036.109.2.187.2.381a.975.975,0,0,1-.146.421c-.054.106-.252.315-.186.456s.215.136.332,0a.807.807,0,0,1,.428.767,4.362,4.362,0,0,1,.076.842c-.142-.2-.161-.69-.357-.842-.283-.22-.513.08-.771.108a3.758,3.758,0,0,0-.467-.009c-.134.029-.272.129-.417.15a6.383,6.383,0,0,0-1.048.038.6.6,0,0,0,.03.488c.11.15.234.051.33.135.163.143.353.462.114.592a.343.343,0,0,1,.322.149c-.39.308-.339-.066-.626-.047-.116.008-.238.2-.319.257-.224.159-.162-.107-.229.2-.088.4.176.435.411.63a1.387,1.387,0,0,1,.357.682,2.83,2.83,0,0,1-.234,2.125,1.74,1.74,0,0,0-.258.743c-.043.191-.113.574-.341.671a1.594,1.594,0,0,1-.041-.282c-.2-.032-.3.066-.5.06-.1-.1-.008-.088-.185-.141a4.734,4.734,0,0,0,.686-1.356c-.043.026-.119.026-.177.069-.144-.175-.205-.326-.441-.448-.031.046-.109.086-.136.125-.026-.35-.337-.1-.548-.061a.616.616,0,0,1-.347,0c-.158-.025-.255-.106-.433-.076-.2.034-.333.2-.535.2-.067,0-.275-.063-.374-.064-.185,0-.635.172-.617-.135.273-.088.21-.23.068-.387-.037-.04-.22-.008-.249-.045-.078-.1,0-.208-.044-.31-.073-.171-.09-.295-.293-.395s-.37.015-.538-.162c.029.006.06.033.086.034a1.4,1.4,0,0,1-.39-.4c-.119-.2-.147-.421-.373-.554-.363-.214-.842-.1-1.111-.493.039-.011.09-.032.129-.043-.2-.114-1.252-.385-.949.18a2.843,2.843,0,0,1-.538-.074c-.155-.061-.224-.212-.41-.263-.118-.033-.423.06-.512-.005-.213-.157.1-.3,0-.45s-.335-.084-.48-.139a3.773,3.773,0,0,1-.429-.23c-.237-.14-.464-.509-.762-.523.1.107-.041.086-.051.182" transform="translate(2739.469 1987.953)" fill="#425453"/>
  </g>
</svg>
