<svg xmlns="http://www.w3.org/2000/svg" width="14" height="10.889" viewBox="0 0 14 10.889">
  <path id="icono_tarjeta_nuevo" data-name="icono tarjeta nuevo" d="M12.833,2.25H1.167A1.167,1.167,0,0,0,0,3.417v.389H14V3.417A1.167,1.167,0,0,0,12.833,2.25ZM0,11.972a1.167,1.167,0,0,0,1.167,1.167H12.833A1.167,1.167,0,0,0,14,11.972V4.583H0ZM8.556,6.333a.2.2,0,0,1,.194-.194h3.5a.2.2,0,0,1,.194.194v.389a.2.2,0,0,1-.194.194H8.75a.2.2,0,0,1-.194-.194Zm0,1.556a.2.2,0,0,1,.194-.194h3.5a.2.2,0,0,1,.194.194v.389a.2.2,0,0,1-.194.194H8.75a.2.2,0,0,1-.194-.194Zm0,1.556A.2.2,0,0,1,8.75,9.25h3.5a.2.2,0,0,1,.194.194v.389a.2.2,0,0,1-.194.194H8.75a.2.2,0,0,1-.194-.194ZM4.278,6.139A1.556,1.556,0,1,1,2.722,7.694,1.557,1.557,0,0,1,4.278,6.139ZM1.631,11.1a1.558,1.558,0,0,1,1.48-1.074h.2a2.5,2.5,0,0,0,1.935,0h.2A1.558,1.558,0,0,1,6.925,11.1a.383.383,0,0,1-.379.481H2.01A.384.384,0,0,1,1.631,11.1Z" transform="translate(0 -2.25)" fill="#425453"/>
</svg>
