<svg xmlns="http://www.w3.org/2000/svg" width="7.497" height="15" viewBox="0 0 7.497 15">
  <path id="Icon_ionic-ios-phone-portrait" data-name="Icon ionic-ios-phone-portrait" d="M16.544,2.25h-5.31a1.1,1.1,0,0,0-1.108,1.1V16.108a1.134,1.134,0,0,0,1.108,1.142H16.54a1.112,1.112,0,0,0,1.081-1.142V3.352A1.074,1.074,0,0,0,16.544,2.25Zm-3.171.77h1a.134.134,0,1,1,0,.268h-1a.134.134,0,0,1,0-.268Zm.519,13.728a.583.583,0,1,1,.583-.583A.583.583,0,0,1,13.892,16.748Zm3.131-1.641H10.728a.067.067,0,0,1-.067-.067V4.025a.067.067,0,0,1,.067-.067h6.295a.067.067,0,0,1,.067.067V15.04A.067.067,0,0,1,17.022,15.107Z" transform="translate(-10.125 -2.25)" fill="#425453"/>
</svg>
