<svg xmlns="http://www.w3.org/2000/svg" width="11.218" height="14" viewBox="0 0 11.218 14">
  <g id="Grupo_1098" data-name="Grupo 1098" transform="translate(-3635.496 -2016.045)">
    <path id="Trazado_402" data-name="Trazado 402" d="M200.242,99.956a5.614,5.614,0,0,0,2.439-10.671l1.02-1.212h0a.505.505,0,0,0,.032-.606l-.865-1.287a.505.505,0,0,0-.4-.224h-4.15a.5.5,0,0,0-.42.224l-.859,1.279a.505.505,0,0,0,.032.606l.951,1.125a5.614,5.614,0,0,0,2.222,10.765Zm-.99-13.424,1.01,1.01-1.01,1.01-1.01-1.01Zm.99,3.81a4,4,0,1,1-2.826,1.172A4,4,0,0,1,200.242,90.342Z" transform="translate(3440.859 1930.089)" fill="#425453"/>
  </g>
</svg>
