<svg xmlns="http://www.w3.org/2000/svg" width="14" height="11.2" viewBox="0 0 14 11.2">
  <path id="Icon_awesome-city" data-name="Icon awesome-city" d="M13.475,4.2H10.5V.525A.525.525,0,0,0,9.975,0H6.825A.525.525,0,0,0,6.3.525V2.1H4.9V.35A.35.35,0,0,0,4.55,0H4.2a.35.35,0,0,0-.35.35V2.1H2.45V.35A.35.35,0,0,0,2.1,0H1.75A.35.35,0,0,0,1.4.35V2.1H.525A.525.525,0,0,0,0,2.625V10.5a.7.7,0,0,0,.7.7H13.3a.7.7,0,0,0,.7-.7V4.725A.525.525,0,0,0,13.475,4.2ZM2.8,8.838a.262.262,0,0,1-.263.262H1.663A.262.262,0,0,1,1.4,8.838V7.963A.262.262,0,0,1,1.663,7.7h.875a.262.262,0,0,1,.263.262Zm0-2.1A.262.262,0,0,1,2.538,7H1.663A.262.262,0,0,1,1.4,6.738V5.863A.262.262,0,0,1,1.663,5.6h.875a.262.262,0,0,1,.263.262Zm0-2.1a.262.262,0,0,1-.263.262H1.663A.262.262,0,0,1,1.4,4.638V3.763A.262.262,0,0,1,1.663,3.5h.875a.262.262,0,0,1,.263.262Zm2.8,4.2a.262.262,0,0,1-.263.262H4.463A.262.262,0,0,1,4.2,8.838V7.963A.262.262,0,0,1,4.463,7.7h.875a.262.262,0,0,1,.263.262Zm0-2.1A.262.262,0,0,1,5.338,7H4.463A.262.262,0,0,1,4.2,6.738V5.863A.262.262,0,0,1,4.463,5.6h.875a.262.262,0,0,1,.263.262Zm0-2.1a.262.262,0,0,1-.263.262H4.463A.262.262,0,0,1,4.2,4.638V3.763A.262.262,0,0,1,4.463,3.5h.875a.262.262,0,0,1,.263.262Zm3.5,2.1A.262.262,0,0,1,8.838,7H7.963A.262.262,0,0,1,7.7,6.738V5.863A.262.262,0,0,1,7.963,5.6h.875a.262.262,0,0,1,.262.262Zm0-2.1a.262.262,0,0,1-.262.262H7.963A.262.262,0,0,1,7.7,4.638V3.763A.262.262,0,0,1,7.963,3.5h.875a.262.262,0,0,1,.262.262Zm0-2.1a.262.262,0,0,1-.262.263H7.963A.262.262,0,0,1,7.7,2.538V1.663A.262.262,0,0,1,7.963,1.4h.875a.262.262,0,0,1,.262.262Zm3.5,6.3a.262.262,0,0,1-.262.262h-.875a.262.262,0,0,1-.262-.262V7.963a.262.262,0,0,1,.262-.262h.875a.262.262,0,0,1,.262.262Zm0-2.1A.262.262,0,0,1,12.338,7h-.875a.262.262,0,0,1-.262-.263V5.863a.262.262,0,0,1,.262-.262h.875a.262.262,0,0,1,.262.262Z" fill="#425453"/>
</svg>
