<svg xmlns="http://www.w3.org/2000/svg" width="83" height="71" viewBox="0 0 83 71">
  <g id="Grupo_1457" data-name="Grupo 1457" transform="translate(-541.75 -175.25)" opacity="0.8">
    <path id="Sustracción_1" data-name="Sustracción 1" d="M52.349,53.717H5.741A5.755,5.755,0,0,1,0,47.961V11.51H68.877V39.967A16.909,16.909,0,0,0,52.349,53.715ZM16.287,38.369h-.981a7.653,7.653,0,0,0-7.283,5.3,1.719,1.719,0,0,0,.265,1.55,1.988,1.988,0,0,0,1.6.825H32.2a1.988,1.988,0,0,0,1.6-.82,1.724,1.724,0,0,0,.263-1.555,7.65,7.65,0,0,0-7.282-5.3h-.979a12.283,12.283,0,0,1-9.519,0Zm26.762-3.836a.959.959,0,0,0-.957.958v1.92a.958.958,0,0,0,.957.958H60.268a.959.959,0,0,0,.957-.958v-1.92a.959.959,0,0,0-.957-.958Zm-22-15.348A7.674,7.674,0,1,0,28.7,26.858,7.671,7.671,0,0,0,21.046,19.185Zm22,7.673a.96.96,0,0,0-.957.96v1.918a.96.96,0,0,0,.957.96H60.268a.96.96,0,0,0,.957-.96V27.818a.96.96,0,0,0-.957-.96Zm0-7.673a.959.959,0,0,0-.957.958v1.919a.958.958,0,0,0,.957.958H60.268a.959.959,0,0,0,.957-.958V20.144a.959.959,0,0,0-.957-.958ZM68.877,7.675H0V5.755A5.755,5.755,0,0,1,5.741,0h57.4a5.754,5.754,0,0,1,5.74,5.755v1.92Z" transform="translate(541.75 175.25)" fill="#425453"/>
    <g id="Elipse_81" data-name="Elipse 81" transform="translate(596.614 218.038)" fill="#fff" stroke="#425453" stroke-width="1">
      <ellipse cx="14.068" cy="14.106" rx="14.068" ry="14.106" stroke="none"/>
      <ellipse cx="14.068" cy="14.106" rx="13.568" ry="13.606" fill="none"/>
    </g>
    <path id="Icon_awesome-arrow-up" data-name="Icon awesome-arrow-up" d="M1.168,9.051.583,8.465a.633.633,0,0,1,0-.9L5.7,2.433a.629.629,0,0,1,.893,0l5.12,5.134a.633.633,0,0,1,0,.9l-.585.587a.632.632,0,0,1-.9-.011L7.2,5.857v7.594a.632.632,0,0,1-.632.634H5.729a.632.632,0,0,1-.632-.634V5.857L2.072,9.041a.627.627,0,0,1-.9.011Z" transform="translate(604.532 223.978)" fill="#f5a50b"/>
  </g>
</svg>
